<?xml version="1.0" encoding="UTF-8" standalone="no"?>
<!-- Created with Inkscape (http://www.inkscape.org/) -->

<svg
   xmlns:dc="http://purl.org/dc/elements/1.1/"
   xmlns:cc="http://creativecommons.org/ns#"
   xmlns:rdf="http://www.w3.org/1999/02/22-rdf-syntax-ns#"
   xmlns:svg="http://www.w3.org/2000/svg"
   xmlns="http://www.w3.org/2000/svg"
   xmlns:sodipodi="http://sodipodi.sourceforge.net/DTD/sodipodi-0.dtd"
   xmlns:inkscape="http://www.inkscape.org/namespaces/inkscape"
   width="900"
   height="400"
   viewBox="0 0 900.00002 399.99998"
   id="svg2"
   version="1.1"
   inkscape:version="0.91 r13725"
   sodipodi:docname="demo_travis.svg"
   inkscape:export-filename="/home/daniel/workspace/groundwork/groundwork-demo/groundwork_demo/plugins/gw_demo_introduction/static/img/libs/demo_sqlalchemy.png"
   inkscape:export-xdpi="90"
   inkscape:export-ydpi="90">
  <defs
     id="defs4">
    <inkscape:perspective
       id="perspective10"
       inkscape:persp3d-origin="372.04724 : 350.78739 : 1"
       inkscape:vp_z="744.09448 : 526.18109 : 1"
       inkscape:vp_y="0 : 1000 : 0"
       inkscape:vp_x="0 : 526.18109 : 1"
       sodipodi:type="inkscape:persp3d" />
    <inkscape:perspective
       sodipodi:type="inkscape:persp3d"
       inkscape:vp_x="0 : 0.5 : 1"
       inkscape:vp_y="0 : 1000 : 0"
       inkscape:vp_z="1 : 0.5 : 1"
       inkscape:persp3d-origin="0.5 : 0.33333333 : 1"
       id="perspective2824" />
    <inkscape:perspective
       sodipodi:type="inkscape:persp3d"
       inkscape:vp_x="0 : 0.5 : 1"
       inkscape:vp_y="0 : 1000 : 0"
       inkscape:vp_z="1 : 0.5 : 1"
       inkscape:persp3d-origin="0.5 : 0.33333333 : 1"
       id="perspective2840" />
    <inkscape:perspective
       sodipodi:type="inkscape:persp3d"
       inkscape:vp_x="0 : 0.5 : 1"
       inkscape:vp_y="0 : 1000 : 0"
       inkscape:vp_z="1 : 0.5 : 1"
       inkscape:persp3d-origin="0.5 : 0.33333333 : 1"
       id="perspective2878" />
    <inkscape:perspective
       sodipodi:type="inkscape:persp3d"
       inkscape:vp_x="0 : 0.5 : 1"
       inkscape:vp_y="0 : 1000 : 0"
       inkscape:vp_z="1 : 0.5 : 1"
       inkscape:persp3d-origin="0.5 : 0.33333333 : 1"
       id="perspective2894" />
    <inkscape:perspective
       sodipodi:type="inkscape:persp3d"
       inkscape:vp_x="0 : 0.5 : 1"
       inkscape:vp_y="0 : 1000 : 0"
       inkscape:vp_z="1 : 0.5 : 1"
       inkscape:persp3d-origin="0.5 : 0.33333333 : 1"
       id="perspective2910" />
    <inkscape:perspective
       sodipodi:type="inkscape:persp3d"
       inkscape:vp_x="0 : 0.5 : 1"
       inkscape:vp_y="0 : 1000 : 0"
       inkscape:vp_z="1 : 0.5 : 1"
       inkscape:persp3d-origin="0.5 : 0.33333333 : 1"
       id="perspective2926" />
    <inkscape:perspective
       sodipodi:type="inkscape:persp3d"
       inkscape:vp_x="0 : 0.5 : 1"
       inkscape:vp_y="0 : 1000 : 0"
       inkscape:vp_z="1 : 0.5 : 1"
       inkscape:persp3d-origin="0.5 : 0.33333333 : 1"
       id="perspective2976" />
    <inkscape:perspective
       sodipodi:type="inkscape:persp3d"
       inkscape:vp_x="0 : 0.5 : 1"
       inkscape:vp_y="0 : 1000 : 0"
       inkscape:vp_z="1 : 0.5 : 1"
       inkscape:persp3d-origin="0.5 : 0.33333333 : 1"
       id="perspective3020" />
    <inkscape:perspective
       sodipodi:type="inkscape:persp3d"
       inkscape:vp_x="0 : 0.5 : 1"
       inkscape:vp_y="0 : 1000 : 0"
       inkscape:vp_z="1 : 0.5 : 1"
       inkscape:persp3d-origin="0.5 : 0.33333333 : 1"
       id="perspective3036" />
    <inkscape:perspective
       sodipodi:type="inkscape:persp3d"
       inkscape:vp_x="0 : 0.5 : 1"
       inkscape:vp_y="0 : 1000 : 0"
       inkscape:vp_z="1 : 0.5 : 1"
       inkscape:persp3d-origin="0.5 : 0.33333333 : 1"
       id="perspective3052" />
    <inkscape:perspective
       sodipodi:type="inkscape:persp3d"
       inkscape:vp_x="0 : 0.5 : 1"
       inkscape:vp_y="0 : 1000 : 0"
       inkscape:vp_z="1 : 0.5 : 1"
       inkscape:persp3d-origin="0.5 : 0.33333333 : 1"
       id="perspective3866" />
  </defs>
  <sodipodi:namedview
     id="base"
     pagecolor="#ffffff"
     bordercolor="#666666"
     borderopacity="1.0"
     inkscape:pageopacity="0.0"
     inkscape:pageshadow="2"
     inkscape:zoom="0.49497475"
     inkscape:cx="553.67559"
     inkscape:cy="192.36189"
     inkscape:document-units="px"
     inkscape:current-layer="layer1"
     showgrid="false"
     showborder="true"
     borderlayer="false"
     inkscape:showpageshadow="true"
     inkscape:window-width="1680"
     inkscape:window-height="1021"
     inkscape:window-x="2560"
     inkscape:window-y="0"
     inkscape:window-maximized="1"
     units="px" />
  <metadata
     id="metadata7">
    <rdf:RDF>
      <cc:Work
         rdf:about="">
        <dc:format>image/svg+xml</dc:format>
        <dc:type
           rdf:resource="http://purl.org/dc/dcmitype/StillImage" />
        <dc:title></dc:title>
      </cc:Work>
    </rdf:RDF>
  </metadata>
  <g
     inkscape:groupmode="layer"
     id="layer2"
     inkscape:label="bg"
     transform="translate(0,-1017.3229)">
    <rect
       style="opacity:1;fill:#ffffff;fill-opacity:1;fill-rule:nonzero;stroke:none;stroke-width:1.20000005;stroke-linecap:round;stroke-linejoin:miter;stroke-miterlimit:4;stroke-dasharray:none;stroke-opacity:0.50196078"
       id="rect4320"
       width="841.75"
       height="352.94156"
       x="31.572119"
       y="1043.9648"
       ry="20.301947"
       rx="15.616883" />
  </g>
  <g
     inkscape:label="Ebene 1"
     inkscape:groupmode="layer"
     id="layer1"
     transform="translate(0,-652.36229)">
    <g
       transform="matrix(1.0176648,0,0,-1.0176648,130.60875,959.21003)"
       inkscape:label="ink_ext_XXXXXX"
       id="g7186">
      <g
         transform="scale(0.1,0.1)"
         id="g7188">
        <path
           inkscape:connector-curvature="0"
           id="path7190"
           style="fill:#cd2345;fill-opacity:1;fill-rule:nonzero;stroke:none"
           d="m 481.723,1127.18 c 0,0 -313.727,-220.821 -326,-304.95 l 23.543,4.84 c 0,0 375.691,249.02 673.504,279.39 l 6.746,37.79 -377.793,-17.07" />
        <path
           inkscape:connector-curvature="0"
           id="path7192"
           style="fill:#cd2345;fill-opacity:1;fill-rule:nonzero;stroke:none"
           d="M 974.207,1158.74 727.086,983.469 740.445,972.75 c 10.075,8.121 438.965,139.11 438.965,139.11 l 90.42,56.69 c -60.67,-7.55 -295.623,-9.81 -295.623,-9.81" />
        <path
           inkscape:connector-curvature="0"
           id="path7194"
           style="fill:#cd2345;fill-opacity:1;fill-rule:nonzero;stroke:none"
           d="m 1188.99,946.75 c 175.47,0 438.51,171.86 438.51,171.86 l -85.03,16.19 c -4.21,-4.21 -137.11,4.66 -137.11,4.66 l -63.09,17.52 -150.74,-171.75 -12.27,-29.8 c 10.84,4.39 9.73,-8.68 9.73,-8.68" />
        <path
           inkscape:connector-curvature="0"
           id="path7196"
           style="fill:#cd2345;fill-opacity:1;fill-rule:nonzero;stroke:none"
           d="m 448.199,295.77 c -1.211,0.55 -2.426,1.109 -3.636,1.671 -8.633,7.45 -15.692,13.539 -20.297,17.508 L 448.199,295.77 Z M 1761.6,398.66 1707.39,383.398 1456.93,388.809 1300.24,510.66 1110.87,463.281 891.828,482.23 769.176,348.199 539.02,279.461 424.102,315.078 c -3.657,3.16 -5.786,4.992 -5.786,4.992 l 51.582,-126.3 c 0,0 116.832,-125.2583 182.094,-139.9887 65.25,-14.7422 183.137,1.0507 271.559,14.7382 88.409,13.6797 158.929,45.2615 187.349,96.8205 28.41,51.59 32.62,66.32 32.62,66.32 0,0 84.22,-118.941 156.84,-132.6287 72.62,-13.6797 288.39,60.0077 288.39,60.0077 0,0 131.58,35.781 154.73,81.039 23.15,45.262 84.21,193.66 84.21,193.66 L 1761.6,398.66" />
        <path
           inkscape:connector-curvature="0"
           id="path7198"
           style="fill:#f3f29c;fill-opacity:1;fill-rule:nonzero;stroke:none"
           d="m 1974.38,1293.4 c -0.55,6.77 -1.3,13.53 -2.12,20.25 -0.59,4.77 -1.34,9.75 -2.16,14.36 -18.08,15.21 -38.62,28.75 -60.01,41.04 -23.17,13.54 -47.43,25.66 -72.18,36.93 -24.58,11.6 -49.82,22.09 -75.22,32.34 -12.67,5.14 -25.45,10.12 -38.29,14.89 -12.79,4.99 -25.71,9.64 -38.67,14.35 27.19,-4.5 54.1,-10.67 80.81,-17.55 17.38,-4.49 34.66,-9.52 51.82,-14.89 -122.11,319.14 -414.06,526.98 -732.83,526.98 -318.803,0 -610.737,-207.84 -732.815,-526.98 17.168,5.37 34.445,10.4 51.785,14.89 26.746,6.88 53.66,13.05 80.84,17.55 -12.996,-4.71 -25.875,-9.36 -38.719,-14.35 -12.773,-4.77 -25.562,-9.75 -38.289,-14.89 -25.394,-10.25 -50.574,-20.74 -75.207,-32.34 -24.699,-11.27 -48.969,-23.39 -72.145,-36.93 -21.386,-12.29 -41.91,-25.83 -60.054,-41.04 -0.754,-4.61 -1.52,-9.59 -2.117,-14.36 -0.809,-6.72 -1.567,-13.48 -2.114,-20.25 -1.183,-13.59 -1.668,-27.24 -1.785,-40.94 -0.269,-27.35 1.574,-54.7 5.043,-81.77 3.738,-27.14 8.715,-54.1 16.078,-80.16 3.629,-13.06 7.746,-25.93 12.504,-38.39 2.391,-6.22 4.988,-12.35 7.699,-18.31 1.348,-2.97 2.758,-5.9 4.168,-8.71 l 1.735,-3.31 c 2.008,-1.02 4.113,-2.06 6.117,-3.03 l 12.137,-5.8 c 6.761,-3.07 16.132,-7.52 23.879,-10.99 l 1.242,1.14 -22.535,85.83 c 4.777,1.31 47.562,12.35 121.312,26.38 -5.953,1.13 -11.961,2.44 -17.867,3.84 -16.789,4.18 -33.363,9.27 -49.395,15.77 -7.961,3.36 -15.808,7.03 -23.277,11.25 -7.484,4.28 -14.844,9.15 -20.535,15.6 81.019,-26.42 248.418,-14.45 397.223,0.92 136.097,14.03 272.511,23.13 409.622,23.39 137.13,-0.26 273.6,-9.36 409.63,-23.39 148.87,-15.37 316.27,-27.34 397.28,-0.92 -5.69,-6.45 -13.04,-11.32 -20.52,-15.6 -7.47,-4.22 -15.32,-7.89 -23.28,-11.25 -16.05,-6.5 -32.61,-11.59 -49.39,-15.77 -2.49,-0.59 -5,-1.14 -7.49,-1.68 80.86,-15 127.93,-27.18 132.96,-28.54 l -21.55,-81.77 c 4.33,1.95 8.71,3.85 13,5.79 l 12.12,5.8 c 2.01,0.97 4.06,2.01 6.12,3.03 l 1.67,3.31 c 1.48,2.81 2.89,5.74 4.23,8.71 2.72,5.96 5.32,12.09 7.7,18.31 4.76,12.46 8.89,25.33 12.51,38.39 7.37,26.06 12.35,53.02 16.08,80.16 3.48,27.07 5.31,54.42 5.05,81.77 -0.12,13.7 -0.61,27.35 -1.8,40.94" />
        <path
           inkscape:connector-curvature="0"
           id="path7200"
           style="fill:#e5c9a2;fill-opacity:1;fill-rule:nonzero;stroke:none"
           d="m 1177.45,158.422 c -10.73,-1.621 -21.46,-2.973 -32.12,-3.781 -6.88,-0.332 -14.15,-1.032 -20.75,-1.032 l -2.44,-0.058 c 8.29,18.519 14.57,32.871 19.34,43.75 9.7,-10.879 22.05,-24.371 35.97,-38.879" />
        <path
           inkscape:connector-curvature="0"
           id="path7202"
           style="fill:#e5c9a2;fill-opacity:1;fill-rule:nonzero;stroke:none"
           d="m 1200.77,134.648 c 33.31,-32.988 74.58,-51.8667 120.02,-55.2261 -76.31,-30.9922 -148.23,-42.961 -203.63,-46.6836 -55.23,-3.6992 -111.22,2.8125 -166.09,17.8633 4.606,0.8203 7.961,1.4101 12.024,1.8984 4.504,0.5508 102.906,13.3789 147.256,79.328 l 4.16,-0.098 10.89,0.098 c 7.37,0 14.07,0.602 21.11,0.883 16.74,1.449 33.1,3.828 49.18,7.078 1.69,-1.719 3.36,-3.41 5.08,-5.141" />
        <path
           inkscape:connector-curvature="0"
           id="path7204"
           style="fill:#5d6661;fill-opacity:1;fill-rule:nonzero;stroke:none"
           d="m 1295.17,1122.16 c -3.19,-4.17 -6.76,-8.76 -10.56,-13.54 -19.49,-24.64 -46.52,-56.15 -78.58,-86.98 -37.26,1.16 -75.56,1.79 -114.98,1.79 -65.13,0 -127.581,-1.72 -186.882,-4.6 83.785,34.77 184.462,68.73 293.472,89.14 31.84,6.02 64.43,10.83 97.53,14.19" />
        <path
           inkscape:connector-curvature="0"
           id="path7206"
           style="fill:#5d6661;fill-opacity:1;fill-rule:nonzero;stroke:none"
           d="m 804.754,1084.64 c -29.906,-21.01 -63.691,-47.83 -96.449,-80.37 -83.891,-8.391 -157.059,-18.571 -217.438,-28.329 92.824,42.669 198.75,81.939 313.887,108.699" />
        <path
           inkscape:connector-curvature="0"
           id="path7208"
           style="fill:#5d6661;fill-opacity:1;fill-rule:nonzero;stroke:none"
           d="m 1829.68,911.461 -34.12,-238.731 -163.45,-114.48 -426.3,48.461 -64.17,211.328 c -1.52,5.141 -5.86,8.922 -11.17,9.789 -15.8,2.551 -29.77,3.852 -41.41,3.852 -11.7,0 -25.62,-1.301 -41.49,-3.852 -5.26,-0.867 -9.58,-4.648 -11.15,-9.789 L 973.82,611.859 549.902,517.531 381.914,635.199 348.813,903.102 c 7.207,4.07 14.531,8.128 21.941,12.179 10.391,2.239 22.094,4.61 35.039,7.098 L 436.984,669.59 c 0.485,-3.942 2.661,-7.469 5.903,-9.738 l 115.562,-80.981 c 2.383,-1.609 5.199,-2.48 8.02,-2.48 1.019,0 2.004,0.097 3.086,0.328 L 918.09,654.27 c 1.195,0.269 2.387,0.699 3.469,1.25 3.242,1.718 5.796,4.699 6.879,8.332 l 62.761,206.66 c 16.831,4.328 59.961,14.398 97.861,14.398 37.8,0 80.95,-10.07 97.8,-14.398 l 62.76,-206.66 c 1.63,-5.364 6.29,-9.204 11.86,-9.864 l 348.54,-39.59 c 3.37,-0.367 6.83,0.512 9.59,2.442 l 115.63,80.898 c 3.13,2.223 5.24,5.711 5.78,9.543 l 30.88,215.969 c 23.17,-4.441 42.56,-8.5 57.78,-11.789" />
        <path
           inkscape:connector-curvature="0"
           id="path7210"
           style="fill:#5d6661;fill-opacity:1;fill-rule:nonzero;stroke:none"
           d="m 1872.73,1061.18 -30,-113.828 c -61.35,13.527 -196.16,40.078 -379.62,57.948 59.94,25.56 120.98,57.62 176.75,97.69 109.17,-15.43 189.33,-31.95 232.87,-41.81" />
        <path
           inkscape:connector-curvature="0"
           id="path7212"
           style="fill:#e4c795;fill-opacity:1;fill-rule:nonzero;stroke:none"
           d="m 1164.44,984.828 c -16.79,-13.598 -34.49,-26.316 -52.91,-37.418 l -61.47,-37.101 c -38.55,-4.7 -72.013,-14.239 -73.915,-14.789 -1.129,-0.321 -2.207,-0.801 -3.192,-1.411 -2.98,-1.73 -5.258,-4.589 -6.34,-8.007 L 904.02,679.832 569.445,605.422 464.066,679.23 433.406,927.59 c 59.844,10.992 139.883,23.711 236.02,34.48 -10.305,-12.34 -20.313,-25.281 -29.793,-38.871 l -57.238,-82.148 83.343,55.57 c 1.242,0.859 54.309,35.777 141.129,78.238 86.524,6.5 182.004,10.68 284.183,10.68 24.91,0 49.35,-0.289 73.39,-0.711 z M 643.645,705.059 c 23.765,12.839 50.625,10.941 92.652,10.882 4.5,-0.101 9.152,-0.05 14.016,0.059 4.128,0.051 8.289,0.109 12.675,0.219 43.321,0.422 79.336,-3.688 78.696,64.332 -0.653,68.008 -30.871,122.988 -74.141,122.551 -43.32,-0.372 -85.23,-56.102 -82.641,-124.071 0.7,-17.699 3.305,-30.48 7.481,-39.691 -37.746,-9.469 -48.153,-32.809 -48.738,-34.281" />
        <path
           inkscape:connector-curvature="0"
           id="path7214"
           style="fill:#e4c795;fill-opacity:1;fill-rule:nonzero;stroke:none"
           d="m 1744.33,928.391 -30.17,-211.161 -106.25,-74.39 -334.13,37.961 -62.33,205.301 c -1.41,4.546 -4.98,8.058 -9.53,9.418 -2.07,0.601 -43.44,12.402 -87.3,16.199 l 8.01,0.531 c 6.93,0.5 122.18,14.629 259.78,62.07 152.4,-11.699 276.84,-30.429 361.92,-45.929 z M 1530.8,732.949 c -0.43,1.621 -9.53,28.961 -49.82,24.172 4.65,10.109 6.71,23.75 5.25,42.438 -5.32,67.863 -44.79,121.793 -88.06,120.293 -43.27,-1.543 -71,-57.793 -68.61,-125.813 2.38,-67.969 38.72,-67.488 81.99,-65.969 58.16,1.09 90.11,18.961 119.25,4.879" />
        <path
           inkscape:connector-curvature="0"
           id="path7216"
           style="fill:#c3af8f;fill-opacity:1;fill-rule:nonzero;stroke:none"
           d="m 1164.44,984.828 c -16.79,-13.598 -34.49,-26.316 -52.91,-37.418 l -61.47,-37.101 c -38.55,-4.7 -72.013,-14.239 -73.915,-14.789 -1.129,-0.321 -2.207,-0.801 -3.192,-1.411 -2.98,-1.73 -5.258,-4.589 -6.34,-8.007 L 904.02,679.832 569.445,605.422 464.066,679.23 433.406,927.59 c 59.844,10.992 139.883,23.711 236.02,34.48 -10.305,-12.34 -20.313,-25.281 -29.793,-38.871 l -57.238,-82.148 83.343,55.57 c 1.242,0.859 54.309,35.777 141.129,78.238 86.524,6.5 182.004,10.68 284.183,10.68 24.91,0 49.35,-0.289 73.39,-0.711 z M 643.645,705.059 c 23.765,12.839 50.625,10.941 92.652,10.882 4.5,-0.101 9.152,-0.05 14.016,0.059 4.128,0.051 8.289,0.109 12.675,0.219 43.321,0.422 79.336,-3.688 78.696,64.332 -0.653,68.008 -30.871,122.988 -74.141,122.551 -43.32,-0.372 -85.23,-56.102 -82.641,-124.071 0.7,-17.699 3.305,-30.48 7.481,-39.691 -37.746,-9.469 -48.153,-32.809 -48.738,-34.281" />
        <path
           inkscape:connector-curvature="0"
           id="path7218"
           style="fill:#c3af8f;fill-opacity:1;fill-rule:nonzero;stroke:none"
           d="m 1744.33,928.391 -30.17,-211.161 -106.25,-74.39 -334.13,37.961 -62.33,205.301 c -1.41,4.546 -4.98,8.058 -9.53,9.418 -2.07,0.601 -43.44,12.402 -87.3,16.199 l 8.01,0.531 c 6.93,0.5 122.18,14.629 259.78,62.07 152.4,-11.699 276.84,-30.429 361.92,-45.929 z M 1530.8,732.949 c -0.43,1.621 -9.53,28.961 -49.82,24.172 4.65,10.109 6.71,23.75 5.25,42.438 -5.32,67.863 -44.79,121.793 -88.06,120.293 -43.27,-1.543 -71,-57.793 -68.61,-125.813 2.38,-67.969 38.72,-67.488 81.99,-65.969 58.16,1.09 90.11,18.961 119.25,4.879" />
        <path
           inkscape:connector-curvature="0"
           id="path7220"
           style="fill:#e5c9a2;fill-opacity:1;fill-rule:nonzero;stroke:none"
           d="m 1890.18,835.512 c 5.12,-4.223 9.18,-15.153 4.6,-66.114 -5.63,-62.386 -31.86,-171.886 -48.1,-189.539 -17.92,-3.468 -55.51,0.641 -78.42,6 3.96,15.723 5.09,23.25 8.29,39.321 l 40.08,28.05 c 3.19,2.219 5.3,5.7 5.84,9.481 l 28.01,196.258 c 17,-9.207 34.49,-19.168 39.7,-23.457" />
        <path
           inkscape:connector-curvature="0"
           id="path7222"
           style="fill:#e5c9a2;fill-opacity:1;fill-rule:nonzero;stroke:none"
           d="m 412.719,579.371 c 2.008,-7.101 4.113,-14.191 6.293,-21.18 -21.563,-6.332 -65.481,-12.402 -85.348,-8.941 -16.465,16.59 -47.176,130.73 -53.891,191.34 -5.472,49.109 -1.628,59.73 3.36,63.851 5.797,4.868 27.504,17.219 46.308,27.289 l 25.395,-206.16 c 0.48,-3.961 2.594,-7.468 5.902,-9.75 l 51.981,-36.449" />
        <path
           inkscape:connector-curvature="0"
           id="path7224"
           style="fill:#e5c9a2;fill-opacity:1;fill-rule:nonzero;stroke:none"
           d="m 1223.42,576.488 -1.52,-13.16 c 0,0 -46.19,-42.828 -120.54,-52.406 -74.36,-9.582 -132.797,36.109 -132.797,36.109 2.441,-7.941 5.914,-25.871 22.75,-41.203 -19.817,2.383 -41.208,3.973 -63.645,3.973 -8.105,0 -16.297,-0.242 -24.207,-0.621 C 857.699,506.789 793.32,437.59 748.055,367.891 725.844,360.852 656.418,338.82 576.055,315.09 501.047,419.02 464.16,525.211 460.43,536.211 l 0.054,0.051 c -1.511,4.218 -3.035,8.457 -4.445,12.789 l 19.293,-13.492 0,-0.047 47.652,-33.364 15.93,-11.097 c 2.375,-1.692 5.191,-2.551 8.008,-2.551 1.031,0 2.055,0.109 3.078,0.309 l 437.906,97.492 c 4.914,1.078 8.879,4.769 10.332,9.578 l 62.452,205.582 c 10.78,1.461 20.24,2.219 28.37,2.219 8.07,0 17.6,-0.758 28.38,-2.219 L 1181.7,589.77 c 1.64,-5.36 6.29,-9.27 11.81,-9.848 l 29.91,-3.434" />
        <path
           inkscape:connector-curvature="0"
           id="path7226"
           style="fill:#e5c9a2;fill-opacity:1;fill-rule:nonzero;stroke:none"
           d="m 1723.27,587.859 14.14,9.93 c -2.35,-9.82 -4.89,-19.559 -7.54,-29.199 -19.65,-62.988 -42.84,-118.699 -68.61,-167.918 -5.69,-0.402 -11.71,-0.621 -18.14,-0.621 -19.89,0 -40.19,1.687 -62.66,3.738 -39,3.582 -100.89,10.672 -120.45,12.941 -16.83,13.43 -74.45,59.211 -122.39,96.942 -1.88,1.527 -3.5,2.937 -5.09,4.238 -8.44,7.141 -18.03,15.25 -37.47,15.25 -17.66,0 -43.44,-6.422 -105.76,-25.281 32.38,24.199 32.6,55.449 32.6,55.449 l 1.52,13.16 410.82,-46.668 c 3.34,-0.379 6.81,0.481 9.63,2.43 l 41.27,28.922 38.13,26.687" />
        <path
           inkscape:connector-curvature="0"
           id="path7228"
           style="fill:#e9d586;fill-opacity:1;fill-rule:nonzero;stroke:none"
           d="m 1420.92,1452.18 c 1.24,-36.55 0.33,-102.78 -16.69,-164.79 -0.69,-2.39 -0.59,-4.82 0,-7.1 -21.65,2.28 -43.32,4.23 -64.98,5.96 24.31,50.96 29.62,105.23 30.77,124.34 18.67,13.27 37.26,29.18 50.9,41.59" />
        <path
           inkscape:connector-curvature="0"
           id="path7230"
           style="fill:#e9d586;fill-opacity:1;fill-rule:nonzero;stroke:none"
           d="m 801.066,1410.59 c 1.133,-19.11 6.438,-73.27 30.711,-124.18 -21.672,-1.73 -43.32,-3.73 -64.937,-6.02 0.586,2.24 0.652,4.61 0,7 -17,61.89 -17.871,128.18 -16.676,164.79 13.645,-12.41 32.168,-28.32 50.902,-41.59" />
        <path
           inkscape:connector-curvature="0"
           id="path7232"
           style="fill:#292c30;fill-opacity:1;fill-rule:nonzero;stroke:none"
           d="m 1394.81,832.539 c 12.19,0.27 21.93,10.352 21.72,22.531 -0.21,12.239 -10.28,21.989 -22.54,21.711 -12.23,-0.203 -21.93,-10.281 -21.7,-22.519 0.22,-12.184 10.29,-21.942 22.52,-21.723 z m 135.99,-99.59 c -29.14,14.082 -61.09,-3.789 -119.25,-4.879 -43.27,-1.519 -79.61,-2 -81.99,65.969 -2.39,68.02 25.34,124.27 68.61,125.813 43.27,1.5 82.74,-52.43 88.06,-120.293 1.46,-18.688 -0.6,-32.329 -5.25,-42.438 40.29,4.789 49.39,-22.551 49.82,-24.172" />
        <path
           inkscape:connector-curvature="0"
           id="path7234"
           style="fill:#f0f9fc;fill-opacity:1;fill-rule:nonzero;stroke:none"
           d="m 1416.53,855.07 c 0.21,-12.179 -9.53,-22.261 -21.72,-22.531 -12.23,-0.219 -22.3,9.539 -22.52,21.723 -0.23,12.238 9.47,22.316 21.7,22.519 12.26,0.278 22.33,-9.472 22.54,-21.711" />
        <path
           inkscape:connector-curvature="0"
           id="path7236"
           style="fill:#292c30;fill-opacity:1;fill-rule:nonzero;stroke:none"
           d="m 774.797,816.141 c 12.183,0.308 21.832,10.507 21.504,22.691 -0.328,12.238 -10.496,21.879 -22.684,21.547 -12.25,-0.32 -21.898,-10.5 -21.566,-22.688 0.324,-12.25 10.512,-21.882 22.746,-21.55 z m 66.887,-35.59 c 0.64,-68.02 -35.375,-63.91 -78.696,-64.332 -4.386,-0.11 -8.547,-0.168 -12.675,-0.219 -4.864,-0.109 -9.516,-0.16 -14.016,-0.059 -42.027,0.059 -68.887,1.957 -92.652,-10.882 0.585,1.472 10.992,24.812 48.738,34.281 -4.176,9.211 -6.781,21.992 -7.481,39.691 -2.589,67.969 39.321,123.699 82.641,124.071 43.27,0.437 73.488,-54.543 74.141,-122.551" />
        <path
           inkscape:connector-curvature="0"
           id="path7238"
           style="fill:#f0f9fc;fill-opacity:1;fill-rule:nonzero;stroke:none"
           d="m 796.301,838.832 c 0.328,-12.184 -9.321,-22.383 -21.504,-22.691 -12.234,-0.332 -22.422,9.3 -22.746,21.55 -0.332,12.188 9.316,22.368 21.566,22.688 12.188,0.332 22.356,-9.309 22.684,-21.547" />
        <path
           inkscape:connector-curvature="0"
           id="path7240"
           style="fill:#ecdb8a;fill-opacity:1;fill-rule:nonzero;stroke:none"
           d="m 499.262,1235.2 -5.032,9.5 -0.199,24.86 13.11,148.25 227.464,55.09 14.153,-191.26 c -11.024,14.96 -27.531,48.8 -37.766,95.24 -5.469,24.8 -23.062,31.86 -43.304,31.86 -17.653,0 -37.325,-5.37 -52.719,-9.04 -33.063,-7.87 -76.356,-18.89 -83.434,-36.2 -13.742,-33.59 -20.465,-121.21 -20.465,-121.21 l -11.808,-7.09" />
        <path
           inkscape:connector-curvature="0"
           id="path7242"
           style="fill:#ecdb8a;fill-opacity:1;fill-rule:nonzero;stroke:none"
           d="m 1673.88,1235.2 -11.82,7.09 c 0,0 -6.71,87.62 -20.45,121.21 -7.09,17.31 -50.38,28.33 -83.43,36.2 -15.4,3.67 -35.08,9.04 -52.73,9.04 -20.25,0 -37.84,-7.06 -43.31,-31.86 -10.22,-46.44 -26.76,-80.28 -37.78,-95.24 l 14.18,191.26 227.47,-55.09 11.16,-126.32 -0.4,-50.84 -2.89,-5.45" />
        <path
           inkscape:connector-curvature="0"
           id="path7244"
           style="fill:#ecdb8c;fill-opacity:1;fill-rule:nonzero;stroke:none"
           d="m 1317.97,1269.54 -458.548,0.84 -23.762,53.5 -16.988,91.71 -37.371,29.71 -0.852,213.57 52.621,155.64 c 0,0 8.664,-458.42 115.793,-458.42 107.127,0 128.567,0 128.567,0 l 21.42,0 c 0,0 21.42,0 128.55,0 107.13,0 113.15,458.62 113.15,458.62 l 69.67,-257.08 -50.63,-144.59 -2.56,-40.76 -17.84,-64.53 -21.22,-38.21" />
        <path
           inkscape:connector-curvature="0"
           id="path7246"
           style="fill:#ecdb8c;fill-opacity:1;fill-rule:nonzero;stroke:none"
           d="m 1784.27,1187.67 c 0,0 -6.47,3.16 -25.87,12.64 1.46,-0.71 25.87,-12.64 25.87,-12.64 m -25.87,12.64 c 0,0.01 0,0.01 0,0.01 l 0,-0.01 m 0,0.01 c -0.02,0.01 -0.04,0.02 -0.07,0.03 l 0,0 c 0,0 0.03,-0.01 0.07,-0.03 m -0.07,0.03 -81.69,24.63 0.13,15.67 4.19,7.93 -3.79,42.91 0.77,95.59 c 0,0 22.04,-158.2 80.39,-186.73" />
        <path
           inkscape:connector-curvature="0"
           id="path7248"
           style="fill:#ead787;fill-opacity:1;fill-rule:nonzero;stroke:none"
           d="m 1676.77,1240.65 0.4,50.84 3.79,-42.91 -4.19,-7.93" />
        <path
           inkscape:connector-curvature="0"
           id="path7250"
           style="fill:#ecdb8c;fill-opacity:1;fill-rule:nonzero;stroke:none"
           d="m 386.754,1187.67 c -0.004,0 25.934,12.68 25.934,12.68 l 0,0 c -19.45,-9.51 -25.934,-12.68 -25.934,-12.68 m 25.934,12.68 c 58.351,28.53 80.398,186.73 80.398,186.73 l 0.945,-117.52 -1.855,-20.98 2.054,-3.88 0.161,-19.72 -81.703,-24.63" />
        <path
           inkscape:connector-curvature="0"
           id="path7252"
           style="fill:#ead787;fill-opacity:1;fill-rule:nonzero;stroke:none"
           d="m 494.23,1244.7 -2.054,3.88 1.855,20.98 0.199,-24.86" />
        <path
           inkscape:connector-curvature="0"
           id="path7254"
           style="fill:#292c30;fill-opacity:1;fill-rule:nonzero;stroke:none"
           d="m 741.715,1277.7 -0.985,2.48 c -19.914,72.46 -19.046,148.45 -17.261,183.48 l -206.824,-58.81 c -13.911,-90.55 -7.418,-157.11 -6.016,-169.34 17.168,4.66 34.391,8.94 51.726,12.94 28.59,6.34 57.399,11.64 86.266,16.52 28.926,4.82 57.945,8.5 86.969,12.02 2.062,0.28 4.062,0.42 6.125,0.71 z m 90.062,8.71 c -24.273,50.91 -29.578,105.07 -30.711,124.18 -18.734,13.27 -37.257,29.18 -50.902,41.59 -1.195,-36.61 -0.324,-102.9 16.676,-164.79 0.652,-2.39 0.586,-4.76 0,-7 21.617,2.29 43.265,4.29 64.937,6.02 z m 572.453,0.98 c 17.02,62.01 17.93,128.24 16.69,164.79 -13.64,-12.41 -32.23,-28.32 -50.9,-41.59 -1.15,-19.11 -6.45,-73.38 -30.78,-124.34 21.67,-1.73 43.34,-3.68 64.99,-5.96 -0.59,2.28 -0.69,4.71 0,7.1 z m 256.17,-51.93 c 1.4,12.17 7.96,78.74 -5.97,169.39 l -206.88,58.81 c 1.85,-35.03 2.67,-111.02 -17.21,-183.48 l -1.02,-2.6 c 2.05,-0.21 4.11,-0.38 6.11,-0.65 58.16,-6.66 116.05,-15.97 173.3,-28.53 17.27,-4.01 34.55,-8.29 51.67,-12.94 z m 33.24,-9.76 c 27.78,-9.09 55.72,-18.73 81.03,-33.52 -13.55,5.36 -27.52,9.21 -41.61,12.68 -14.02,3.57 -28.15,6.6 -42.35,9.31 -28.43,5.36 -56.96,9.9 -85.67,13.38 -28.65,3.73 -57.34,6.88 -86.16,9.32 -28.81,2.43 -57.56,4.86 -86.43,6.55 -115.4,7.09 -231.12,8.87 -346.92,8.99 -115.768,-0.06 -231.495,-2.23 -346.913,-9.05 -28.855,-1.68 -57.613,-4.12 -86.426,-6.56 -28.8,-2.42 -57.562,-5.52 -86.156,-9.3 -28.707,-3.48 -57.242,-8.03 -85.672,-13.38 -14.187,-2.66 -28.328,-5.75 -42.402,-9.26 -14.023,-3.47 -28.059,-7.32 -41.594,-12.68 25.297,14.79 53.235,24.48 81.071,33.59 2.335,0.75 4.71,1.4 7.089,2.15 l -0.433,1.79 c -0.485,3.2 -10.778,79.24 7.148,187.98 0.871,5.2 4.606,9.42 9.699,10.83 l 29.407,8.38 c 6.386,228.11 100.34,335.39 103.273,338.69 -83.941,-135.06 -83.176,-295.25 -81.723,-332.56 l 182.774,51.94 0.426,0.1 2.277,0.32 0.754,0.06 c 0.93,0.05 1.965,-0.06 2.996,-0.27 l 0.539,-0.16 2.262,-0.76 0.867,-0.49 1.785,-1.13 0.492,-0.33 0.325,-0.33 0.543,-0.43 c 0.117,-0.17 4.98,-4.98 12.726,-12.19 -1.836,60.23 1.031,232.98 83.297,376.16 -1.738,-5.02 -67,-195.88 -44.512,-409.79 7.301,-5.85 14.981,-11.58 22.469,-16.62 3.617,-2.49 5.848,-6.6 5.895,-10.99 0.066,-0.71 1.621,-68.89 31.742,-126.89 0.425,-0.86 0.75,-1.78 1.031,-2.71 74.894,5.09 150.004,7.15 224.944,7.21 74.97,-0.06 150.03,-2.23 224.91,-7.37 0.27,0.98 0.6,1.94 1.09,2.87 30.1,58 31.68,126.18 31.68,126.89 0.09,4.39 2.32,8.5 5.96,10.99 7.47,5.04 15.05,10.77 22.42,16.62 22.52,213.91 -42.75,404.77 -44.47,409.79 82.2,-143.18 85.14,-315.93 83.3,-376.16 7.68,7.21 12.56,12.02 12.71,12.19 l 0.54,0.43 0.33,0.33 0.49,0.33 1.78,1.19 0.82,0.43 2.38,0.81 0.49,0.11 c 0.97,0.21 2.02,0.32 2.98,0.27 l 0.7,-0.06 2.33,-0.32 0.43,-0.1 182.77,-51.94 c 1.48,37.31 2.23,197.5 -81.7,332.56 2.91,-3.3 96.87,-110.58 103.21,-338.69 l 29.46,-8.38 c 5.03,-1.41 8.83,-5.63 9.7,-10.83 17.92,-108.74 7.58,-184.78 7.14,-187.98 l -0.43,-1.83 c 2.38,-0.71 4.7,-1.41 7.09,-2.18" />
        <path
           inkscape:connector-curvature="0"
           id="path7256"
           style="fill:#292c30;fill-opacity:1;fill-rule:nonzero;stroke:none"
           d="m 1266.96,1673.54 0,98.69 -355.128,0 0,-98.69 48.555,0 0,50.14 100.453,0 0,-304.72 -41.34,0 0,-56.52 139.79,0 0,56.52 -41.34,0 0,304.72 100.45,0 0,-50.14 48.56,0 z m -391.605,135.17 428.165,0 0,-171.65 -121.68,0 0,50.15 -27.42,0 0,-231.69 41.43,0 0,-129.56 -212.827,0 0,129.56 41.257,0 0,231.69 -27.335,0 0,-50.15 -121.59,0 0,171.65" />
        <path
           inkscape:connector-curvature="0"
           id="path7258"
           style="fill:#cd2345;fill-opacity:1;fill-rule:nonzero;stroke:none"
           d="m 1266.96,1772.23 0,-98.69 -48.56,0 0,50.14 -100.45,0 0,-304.72 41.34,0 0,-56.52 -139.79,0 0,56.52 41.34,0 0,304.72 -100.453,0 0,-50.14 -48.555,0 0,98.69 355.128,0" />
        <path
           inkscape:connector-curvature="0"
           id="path7260"
           style="fill:#5d6661;fill-opacity:1;fill-rule:nonzero;stroke:none"
           d="m 309.457,1061.18 c 17.738,4.02 41.699,9.14 71.09,14.82 -18.059,-12.31 -39.414,-27.76 -62.734,-46.35 l -8.356,31.53" />
        <path
           inkscape:connector-curvature="0"
           id="path7262"
           style="fill:#c3af8f;fill-opacity:1;fill-rule:nonzero;stroke:none"
           d="m 958.902,590.738 c 0,0 4.961,-31.91 -39.699,-45.558 C 874.555,531.52 591.715,447.23 559.461,451.789 527.207,456.34 445.336,511.02 445.336,511.02 l -19.848,70.609 121.145,-75.527 412.269,84.636" />
        <path
           inkscape:connector-curvature="0"
           id="path7264"
           style="fill:#c3af8f;fill-opacity:1;fill-rule:nonzero;stroke:none"
           d="m 1212.28,596.922 c 0,0 -3.57,-32.082 41.65,-43.801 45.2,-11.711 331.44,-83.633 363.46,-77.672 32.02,5.961 111.43,64.129 111.43,64.129 l 16.77,71.422 -111.35,-66.422 -421.96,52.344" />
        <path
           inkscape:connector-curvature="0"
           id="path7266"
           style="fill:#c3af8f;fill-opacity:1;fill-rule:nonzero;stroke:none"
           d="m 286.449,649.461 c 0,0 39.192,-78.391 102.492,-51.25 l 45.219,-16.582 -4.519,-33.168 -94.961,-12.051 -25.625,15.07 -22.606,97.981" />
        <path
           inkscape:connector-curvature="0"
           id="path7268"
           style="fill:#c3af8f;fill-opacity:1;fill-rule:nonzero;stroke:none"
           d="m 1890.88,670.98 c 0,0 -64.05,-81.808 -127.35,-54.691 l -20.36,-13.129 4.52,-33.148 94.96,-12.071 25.61,15.079 22.62,97.96" />
        <path
           inkscape:connector-curvature="0"
           id="path7270"
           style="fill:#c3af8f;fill-opacity:1;fill-rule:nonzero;stroke:none"
           d="m 900.102,55.1484 c 0,0 232.188,-117.0664 495.088,42.2227 l -84.43,5.7579 c 0,0 -184.22,-72.9102 -330.061,-32.6173 L 900.102,55.1484" />
        <path
           inkscape:connector-curvature="0"
           id="path7272"
           style="fill:#292c30;fill-opacity:1;fill-rule:nonzero;stroke:none"
           d="m 380.547,1076 c -29.391,-5.68 -53.352,-10.8 -71.09,-14.82 l 8.356,-31.53 c 23.32,18.59 44.675,34.04 62.734,46.35 z m 38.465,-517.809 c -2.196,6.989 -4.278,14.09 -6.258,21.188 l -52.039,36.422 c -3.293,2.301 -5.379,5.789 -5.906,9.769 l -25.364,206.16 c -18.793,-10.07 -40.5,-22.429 -46.297,-27.289 -5.003,-4.121 -8.82,-14.722 -3.39,-63.839 6.73,-60.59 37.422,-174.75 53.914,-191.352 19.836,-3.488 63.785,2.609 85.34,8.941 z m 311.027,546.419 c 38.566,10.8 78.348,20.25 119.098,28.18 -58.453,-2.14 -116.953,-4.85 -175.36,-8.15 -33.933,-1.87 -67.699,-4.17 -101.468,-6.73 -16.914,-1.3 -33.723,-2.65 -50.481,-4.48 -4.797,-0.47 -9.496,-0.99 -14.297,-1.62 -44.047,-26.36 -213,-132.419 -328.98,-271.099 112.695,78.34 309.047,196.039 551.488,263.899 z M 708.27,1004.29 c 32.773,32.52 66.593,59.35 96.453,80.32 -115.09,-26.72 -221.032,-65.96 -313.836,-108.649 60.39,9.75 133.511,19.918 217.383,28.329 z M 1150,1136.81 c -23.29,0.37 -46.62,0.58 -69.9,0.63 l -0.05,0 c -34.18,-0.05 -68.43,-0.42 -102.726,-1.1 l -63.199,-29.95 -0.887,-0.48 c -9.5,-4.64 -92.484,-46.51 -170.574,-121.199 70,36.809 172.867,84.869 293.916,122.139 36.26,11.11 74.26,21.35 113.42,29.96 z m -38.47,-189.412 c 18.42,11.114 36.11,23.852 52.91,37.422 -24.06,0.41 -48.48,0.731 -73.37,0.731 -102.199,0 -197.668,-4.18 -284.203,-10.699 -86.804,-42.43 -139.887,-77.34 -141.129,-78.231 l -83.359,-55.601 57.254,82.16 c 9.449,13.629 19.472,26.57 29.805,38.879 -96.141,-10.739 -176.204,-23.477 -236.016,-34.5 l 30.633,-248.329 105.386,-73.808 334.563,74.379 62.629,206.32 c 1.047,3.399 3.34,6.258 6.32,7.988 0.985,0.629 2.031,1.09 3.176,1.411 1.934,0.519 35.391,10.07 73.961,14.769 l 61.44,37.109 z m 33.82,-792.777 c 10.64,0.84 21.34,2.199 32.1,3.809 -13.94,14.5 -26.26,27.98 -35.97,38.89 -4.75,-10.91 -11.05,-25.261 -19.36,-43.75 l 2.46,0 c 6.62,0 13.87,0.719 20.77,1.051 z m 175.42,-75.2108 c -45.4,3.3398 -86.69,22.2308 -120,55.2188 -1.72,1.762 -3.39,3.449 -5.06,5.16 -16.12,-3.23 -32.46,-5.629 -49.22,-7.098 -7.04,-0.261 -13.72,-0.871 -21.08,-0.871 l -10.92,-0.109 -4.16,0.109 C 1066.01,65.8906 967.578,53.0508 963.078,52.4688 c -4.062,-0.4571 -7.402,-1.0391 -12.008,-1.8672 54.87,-15.043 110.86,-21.5625 166.09,-17.8516 55.37,3.6992 127.31,15.7109 203.61,46.6602 z M 1284.61,1108.63 c 3.8,4.75 7.35,9.33 10.53,13.51 -33.09,-3.34 -65.66,-8.14 -97.5,-14.19 -109.03,-20.41 -209.714,-54.34 -293.492,-89.09 59.356,2.87 121.772,4.59 186.922,4.59 39.4,0 77.71,-0.68 114.97,-1.78 32.05,30.8 59.09,62.31 78.57,86.96 z m 301.2,9.33 -0.31,0.12 c -32.99,2.44 -65.97,4.69 -99.07,6.56 -45.92,2.62 -91.86,4.81 -137.79,6.74 -2.67,-3.97 -8.09,-11.79 -15.87,-22.44 -24.99,-33.82 -74.58,-95.88 -138.16,-148.499 90,16.129 246.09,56.059 381.13,150.269 3.39,2.41 6.73,4.92 10.07,7.25 z m 151.58,-520.159 -14.15,-9.91 -38.1,-26.719 -41.29,-28.922 c -2.81,-1.941 -6.25,-2.828 -9.61,-2.461 l -410.81,46.711 -29.9,3.398 c -5.54,0.633 -10.19,4.5 -11.81,9.864 l -64.3,211.699 c -10.74,1.461 -20.31,2.199 -28.33,2.199 -8.16,0 -17.66,-0.738 -28.4,-2.199 l -62.432,-205.59 c -1.461,-4.801 -5.422,-8.461 -10.332,-9.543 l -437.91,-97.519 c -1.039,-0.2 -2.078,-0.297 -3.078,-0.297 -2.817,0 -5.637,0.84 -8.04,2.547 l -15.914,11.07 -47.652,33.351 0,0.11 -19.262,13.461 c 1.364,-4.332 2.918,-8.571 4.442,-12.789 l -0.059,-0.051 c 3.707,-11.012 40.61,-117.172 115.613,-221.09 80.321,23.699 149.793,45.719 171.969,52.77 45.25,69.73 109.664,138.89 155.442,141.289 7.878,0.371 16.086,0.621 24.222,0.621 22.391,0 43.797,-1.621 63.614,-3.973 -16.852,15.301 -20.293,33.262 -22.75,41.192 0,0 58.407,-45.668 132.777,-36.129 74.39,9.609 120.57,52.468 120.57,52.468 0,0 -0.21,-31.281 -32.62,-55.48 62.33,18.84 88.11,25.312 105.75,25.312 19.47,0 29.07,-8.14 37.47,-15.312 1.62,-1.297 3.24,-2.699 5.11,-4.219 47.92,-37.73 105.54,-83.512 122.41,-96.93 19.52,-2.289 81.41,-9.332 120.41,-12.941 22.49,-2.019 42.79,-3.75 62.68,-3.75 6.42,0 12.43,0.262 18.11,0.633 25.8,49.199 48.97,104.957 68.64,167.898 2.65,9.66 5.23,19.418 7.52,29.231 z m -23.23,119.418 30.17,211.191 c -85.08,15.488 -209.5,34.231 -361.92,45.918 -137.58,-47.449 -252.82,-61.578 -259.77,-62.047 l -8.03,-0.57 c 43.89,-3.77 85.23,-15.57 87.31,-16.191 4.55,-1.36 8.1,-4.848 9.51,-9.399 l 62.37,-205.332 334.09,-37.949 106.27,74.379 z m 81.37,-44.481 34.13,238.711 c -15.18,3.281 -34.59,7.34 -57.78,11.781 l -30.84,-215.968 c -0.57,-3.813 -2.67,-7.313 -5.8,-9.524 l -115.66,-80.886 c -2.72,-1.93 -6.2,-2.821 -9.55,-2.454 l -348.55,39.614 c -5.58,0.629 -10.23,4.488 -11.86,9.808 l -62.77,206.692 c -16.82,4.34 -59.98,14.41 -97.76,14.41 -37.95,0 -81.07,-10.07 -97.875,-14.41 L 928.422,663.82 c -1.098,-3.59 -3.606,-6.582 -6.879,-8.289 -1.051,-0.582 -2.246,-0.992 -3.453,-1.261 L 569.539,576.719 c -1.098,-0.219 -2.031,-0.328 -3.078,-0.328 -2.82,0 -5.637,0.839 -7.984,2.519 l -115.614,80.949 c -3.234,2.25 -5.379,5.801 -5.894,9.762 l -31.16,252.777 c -12.946,-2.507 -24.633,-4.91 -35.079,-7.089 -7.406,-4.079 -14.718,-8.149 -21.917,-12.231 L 381.895,635.23 549.918,517.531 973.836,611.84 1036.42,818 c 1.57,5.18 5.89,8.988 11.17,9.828 15.87,2.551 29.74,3.852 41.5,3.852 11.63,0 25.56,-1.301 41.38,-3.852 5.33,-0.84 9.65,-4.648 11.17,-9.828 l 64.19,-211.281 426.28,-48.469 163.42,114.488 z m 47.18,274.614 30.02,113.828 c -43.53,9.86 -123.7,26.36 -232.89,41.81 -55.75,-40.08 -116.77,-72.13 -176.73,-97.7 183.46,-17.86 318.27,-44.419 379.6,-57.938 z m 52.04,-177.922 c 4.6,50.929 0.59,61.89 -4.59,66.07 -5.17,4.332 -22.65,14.238 -39.67,23.48 l -28.02,-196.242 c -0.52,-3.808 -2.67,-7.269 -5.84,-9.5 l -40.1,-28.039 c -3.18,-16.058 -4.32,-23.64 -8.24,-39.347 22.91,-5.321 60.49,-9.461 78.39,-6 16.24,17.636 42.48,127.148 48.07,189.578 z m 120.93,484.24 c 1.48,-29.38 0.69,-58.81 -2.61,-88.04 -3.07,-29.18 -8.61,-58.1 -16.32,-86.76 -4.03,-14.25 -8.67,-28.33 -14.15,-42.32 -2.77,-6.99 -5.74,-13.94 -8.98,-20.88 -1.62,-3.44 -3.34,-6.84 -5.27,-10.33 l -2.87,-5.17 c -1.05,-1.881 -1.88,-3.291 -3.5,-5.791 l -2.97,-4.609 -4.65,-2.379 c -4.96,-2.571 -9.02,-4.493 -13.53,-6.59 l -13.08,-5.903 c -8.78,-3.75 -17.59,-7.296 -26.42,-10.738 -6.16,-2.41 -11.59,-4.609 -16.75,-6.801 l -14.56,-55.32 c -0.36,0.102 -4.75,1.211 -12.94,3.18 l -0.79,-5.778 c 16.07,-8.402 47.64,-25.429 58.4,-34.312 21.66,-17.899 23.18,-46.238 18.38,-99.207 -2.46,-27.203 -11.48,-80.113 -24.01,-128.711 -21.62,-83.672 -33.1,-93.492 -47.92,-97.289 -7.52,-1.934 -19.1,-3.863 -30.33,-3.863 -22.85,0 -53.97,-0.629 -74.9,4.421 -5.37,-19.031 -20.72,-68.679 -51.1,-130.679 1.52,0.738 3.03,1.347 4.39,2.078 37.47,19.68 109.51,51.062 112.53,52.41 l 56.9,24.731 -29.13,-54.801 c -0.68,-1.188 -63.16,-118.688 -101.42,-195.418 -37.99,-75.992 -109.24,-92.539 -151.89,-102.34 -6.42,-1.52 -12.51,-2.93 -17.47,-4.289 -30.6,-8.602 -92.55,-23.383 -147.19,-36.5236 l -1.98,-0.4296 C 1395.93,74.4414 1359.24,55.9102 1319.1,40.6719 1172.22,-14.9609 1017.42,-11.8281 877.059,39.7383 854.266,36.8086 824.293,33.2188 784.379,28.6797 767.031,26.75 750.184,25.75 734.113,25.75 600.387,25.75 529.512,93.6602 477.781,160.148 422.398,231.352 354.664,337.051 351.789,341.469 l -39.254,61.281 66.391,-29.852 c 31.781,-14.308 126.265,-58.039 153.297,-70.566 2.183,0.617 4.332,1.25 6.468,1.879 -44.933,64.09 -81.785,137.168 -107.832,218.109 -22.132,-6.672 -56.218,-11.84 -82.734,-11.84 -9.691,0 -18.367,0.731 -25.039,2.301 -14.832,3.391 -31.742,17.68 -54.762,98.75 -13.355,47.071 -23.328,98.438 -26.246,124.891 -5.75,51.629 -4.699,79.289 16.758,97.148 12.937,10.801 56.566,33.711 65.598,38.399 l -1.93,15.929 C 183.875,806.43 100.789,734.449 99.1172,732.98 L 0,645.98 70.6211,757.352 C 126.52,845.621 191.078,916.969 250.48,971.93 c -2.457,0.992 -4.75,1.98 -7.156,2.968 l -13.101,5.903 c -4.489,2.097 -8.559,4.019 -13.512,6.59 l -4.652,2.379 -2.973,4.609 c -1.668,2.5 -2.398,3.91 -3.496,5.791 l -2.922,5.17 c -1.824,3.49 -3.605,6.89 -5.219,10.33 -3.293,6.94 -6.261,13.89 -8.972,20.88 -5.489,13.99 -10.129,28.07 -14.153,42.32 -7.777,28.66 -13.258,57.58 -16.336,86.76 -3.234,29.23 -4.07,58.66 -2.613,88.04 0.785,14.67 2.195,29.33 4.227,43.9 1.046,7.31 2.144,14.62 3.605,21.88 1.512,7.39 2.981,14.29 5.223,22.38 l 1.562,5.68 4.071,3.2 c 23.125,18.17 48.066,31.88 73.437,44.04 20.883,9.81 42.172,18.48 63.629,26.37 59.918,166.28 162.941,313.74 298.34,416.5 139.992,106.22 304.605,162.38 476.061,162.38 171.46,0 336.08,-56.16 476.06,-162.38 135.39,-102.76 238.43,-250.22 298.31,-416.45 21.5,-7.94 42.74,-16.54 63.67,-26.42 25.35,-12.16 50.31,-25.87 73.42,-44.04 l 4.08,-3.2 1.57,-5.68 c 2.3,-8.09 3.75,-14.99 5.21,-22.38 1.48,-7.26 2.62,-14.57 3.6,-21.88 2.05,-14.57 3.51,-29.23 4.23,-43.9 z M 408.313,1438.34 c -25.368,-10.23 -50.575,-20.78 -75.211,-32.36 -24.692,-11.28 -48.961,-23.39 -72.141,-36.9 -21.387,-12.32 -41.906,-25.84 -60.023,-41.09 -0.778,-4.58 -1.504,-9.6 -2.129,-14.35 -0.786,-6.72 -1.571,-13.46 -2.094,-20.25 -1.195,-13.56 -1.668,-27.24 -1.817,-40.91 -0.265,-27.35 1.61,-54.71 5.055,-81.79 3.754,-27.15 8.715,-54.14 16.067,-80.17 3.664,-13.06 7.734,-25.95 12.531,-38.36 2.351,-6.28 4.961,-12.38 7.683,-18.33 1.352,-2.97 2.758,-5.9 4.168,-8.71 l 1.731,-3.29 c 2.027,-1.05 4.117,-2.08 6.097,-3.03 l 12.161,-5.79 c 6.789,-3.14 16.132,-7.57 23.855,-11.02 l 1.25,1.15 -22.492,85.81 c 4.75,1.3 47.555,12.37 121.301,26.41 -5.953,1.09 -12.004,2.4 -17.899,3.82 -16.758,4.16 -33.363,9.28 -49.379,15.75 -7.937,3.39 -15.824,7.04 -23.277,11.28 -7.465,4.28 -14.828,9.13 -20.52,15.59 81.004,-26.45 248.395,-14.45 397.208,0.9 136.117,14.05 272.496,23.12 409.612,23.43 137.11,-0.31 273.61,-9.38 409.62,-23.43 148.91,-15.35 316.31,-27.35 397.3,-0.9 -5.69,-6.46 -13.04,-11.31 -20.51,-15.59 -7.45,-4.24 -15.34,-7.89 -23.27,-11.28 -16.08,-6.47 -32.63,-11.59 -49.43,-15.75 -2.46,-0.57 -4.96,-1.16 -7.47,-1.68 80.86,-14.98 127.93,-27.19 132.94,-28.55 l -21.55,-81.73 c 4.34,1.93 8.71,3.8 12.98,5.79 l 12.18,5.79 c 1.98,0.95 4.07,1.98 6.1,3.03 l 1.67,3.29 c 1.46,2.81 2.87,5.74 4.23,8.71 2.72,5.95 5.32,12.05 7.73,18.33 4.75,12.41 8.86,25.3 12.46,38.36 7.37,26.03 12.38,53.02 16.08,80.17 3.5,27.08 5.33,54.44 5.07,81.79 -0.1,13.67 -0.62,27.35 -1.77,40.91 -0.57,6.79 -1.31,13.53 -2.15,20.25 -0.57,4.75 -1.36,9.77 -2.14,14.35 -18.12,15.25 -38.62,28.77 -60.03,41.09 -23.17,13.51 -47.43,25.62 -72.18,36.9 -24.58,11.58 -49.83,22.13 -75.2,32.36 -12.69,5.11 -25.49,10.13 -38.32,14.88 -12.78,4.96 -25.73,9.64 -38.67,14.34 27.18,-4.49 54.13,-10.69 80.79,-17.53 17.38,-4.49 34.72,-9.56 51.83,-14.93 -122.09,319.17 -414.06,527.01 -732.81,527.01 -318.803,0 -610.721,-207.84 -732.8,-527.01 17.165,5.37 34.442,10.44 51.77,14.93 26.727,6.84 53.652,13.04 80.859,17.53 -13.007,-4.7 -25.894,-9.38 -38.738,-14.34 -12.789,-4.75 -25.57,-9.77 -38.308,-14.88 z m 727.177,-1167.488 16.06,-19.153 c 0.36,-0.461 36.07,-42.949 79.71,-86.219 29.03,-28.769 64.09,-43.332 104.28,-43.332 13.73,0 28.14,1.774 42.7,5.282 13.51,3.289 28.18,6.789 43.22,10.39 54.28,12.981 115.76,27.711 145.57,36.059 5.89,1.672 12.47,3.18 19.4,4.762 39.67,9.16 94.06,21.8 122.87,79.531 21.67,43.316 50.89,99.547 72.55,140.758 -18.78,-8.66 -38.47,-18.051 -52.46,-25.41 -21.55,-11.321 -49.78,-16.801 -86.27,-16.801 -21.7,0 -43.01,1.82 -66.6,3.922 -47.13,4.328 -126.89,13.711 -127.71,13.82 l -6.11,0.68 -4.81,3.859 c -0.72,0.52 -70.61,56.211 -127.1,100.629 -2.29,1.883 -4.37,3.601 -6.25,5.172 -5.95,5.07 -5.95,5.07 -9.5,5.07 -18.12,0 -70.77,-16.34 -186.14,-52.101 l -7.08,-2.25 -6.95,2.621 c -0.79,0.257 -76.47,28.328 -167.171,28.328 -7.418,0 -14.82,-0.188 -22.027,-0.559 -9.086,-0.469 -60.074,-24.68 -125.274,-127.832 l -4.226,-6.617 -7.469,-2.402 C 767.621,328.691 655.402,292.461 536.398,258.43 l -7.722,-2.192 -7.313,3.403 c -0.777,0.308 -47.34,21.91 -91.652,42.281 24.168,-35.703 55.07,-80.231 82.262,-115.16 47.492,-61.172 107.363,-117.6917 222.14,-117.6917 14.399,0 29.696,0.8906 45.403,2.668 116.757,13.2031 146.828,18.5234 163.007,21.3398 5.473,0.9414 9.809,1.7305 15.348,2.4024 0.883,0.1093 96.499,12.4685 123.329,72.6605 27.66,61.839 33.24,76.57 33.45,77.129 l 9.77,26.039 c 0,0 1.21,6.75 3.19,8.839 l 0.05,-0.046 0.19,-0.161 c 3.08,-2.203 7.64,-9.089 7.64,-9.089" />
        <path
           inkscape:connector-curvature="0"
           id="path7274"
           style="fill:#292c30;fill-opacity:1;fill-rule:nonzero;stroke:none"
           d="m 2574,1250.74 -234.61,0 0,121.64 611.96,0 0,-121.64 -233.36,0 0,-690.181 -143.99,0 0,690.181" />
        <path
           inkscape:connector-curvature="0"
           id="path7276"
           style="fill:#292c30;fill-opacity:1;fill-rule:nonzero;stroke:none"
           d="m 2938.46,1170.05 117.93,0 9.92,-107.99 4.97,0 c 43.45,79.44 107.99,122.88 172.55,122.88 31.03,0 50.88,-3.72 69.51,-12.41 l -24.83,-124.12 c -21.11,6.2 -37.24,9.92 -63.31,9.92 -48.41,0 -106.75,-33.52 -143.99,-125.369 l 0,-372.402 -142.75,0 0,609.491" />
        <path
           inkscape:connector-curvature="0"
           id="path7278"
           style="fill:#292c30;fill-opacity:1;fill-rule:nonzero;stroke:none"
           d="m 3570.28,657.391 c 49.65,0 88.14,24.82 132.82,67.019 l 0,136.551 C 3538.01,839.852 3483.39,796.41 3483.39,735.59 c 0,-54.621 35.99,-78.199 86.89,-78.199 z M 3703.1,950.34 c -1.24,64.54 -28.55,119.16 -110.47,119.16 -60.83,0 -117.93,-27.3 -171.31,-59.58 l -52.13,95.58 c 67.03,42.21 152.68,79.44 249.5,79.44 152.69,0 227.17,-93.09 227.17,-263.151 l 0,-361.23 -116.69,0 -11.17,67.043 -3.72,0 c -54.62,-45.942 -116.69,-81.93 -188.68,-81.93 -106.76,0 -181.24,71.988 -181.24,178.738 0,130.34 109.24,198.621 358.74,225.93" />
        <path
           inkscape:connector-curvature="0"
           id="path7280"
           style="fill:#292c30;fill-opacity:1;fill-rule:nonzero;stroke:none"
           d="m 3886.7,1170.05 145.24,0 96.82,-316.538 c 16.13,-59.582 34.76,-121.641 50.9,-183.723 l 4.96,0 c 17.37,62.082 34.76,124.141 52.14,183.723 l 96.81,316.538 137.79,0 -207.29,-609.491 -165.1,0 -212.27,609.491" />
        <path
           inkscape:connector-curvature="0"
           id="path7282"
           style="fill:#292c30;fill-opacity:1;fill-rule:nonzero;stroke:none"
           d="m 4541.01,1170.05 142.75,0 0,-609.491 -142.75,0 0,609.491 z m -16.14,187.43 c 0,48.42 37.23,81.94 88.13,81.94 50.9,0 88.13,-33.52 88.13,-81.94 0,-47.16 -37.23,-80.68 -88.13,-80.68 -50.9,0 -88.13,33.52 -88.13,80.68" />
        <path
           inkscape:connector-curvature="0"
           id="path7284"
           style="fill:#292c30;fill-opacity:1;fill-rule:nonzero;stroke:none"
           d="m 4832.59,721.93 c 54.62,-42.2 106.76,-68.27 168.82,-68.27 65.8,0 96.83,31.031 96.83,73.231 0,50.898 -65.8,73.238 -130.34,98.07 -80.69,29.789 -171.3,75.719 -171.3,177.499 0,106.77 85.65,182.48 222.19,182.48 84.41,0 152.68,-34.75 202.33,-73.23 l -65.78,-86.9 c -42.21,31.04 -85.65,52.15 -134.06,52.15 -60.83,0 -89.39,-28.55 -89.39,-67.04 0,-47.17 60.84,-67.041 126.62,-90.611 83.17,-31.039 175.03,-70.758 175.03,-184.957 0,-104.274 -83.18,-188.68 -237.09,-188.68 -83.17,0 -171.3,35.988 -230.88,84.406 l 67.02,91.852" />
        <path
           inkscape:connector-curvature="0"
           id="path7286"
           style="fill:#292c30;fill-opacity:1;fill-rule:nonzero;stroke:none"
           d="m 5933.65,1387.28 c 99.3,0 179.98,-48.41 230.88,-103.03 l -79.45,-89.37 c -42.21,40.96 -88.13,67.03 -150.19,67.03 -132.82,0 -228.41,-111.72 -228.41,-294.199 0,-184.961 88.13,-296.672 223.43,-296.672 72,0 125.38,29.801 171.31,80.68 l 79.45,-88.129 c -65.8,-75.719 -150.21,-117.918 -253.24,-117.918 -206.05,0 -368.66,148.949 -368.66,418.316 0,265.642 166.33,423.292 374.88,423.292" />
        <path
           inkscape:connector-curvature="0"
           id="path7288"
           style="fill:#292c30;fill-opacity:1;fill-rule:nonzero;stroke:none"
           d="m 6268.69,560.559 143.988,0 0,811.824 -143.988,0 0,-811.824 z" />
      </g>
    </g>
  </g>
</svg>
